<svg xmlns="http://www.w3.org/2000/svg" fill="none" viewBox="0 0 1200 1200"><g id="i0"><g><animateTransform fill="freeze" attributeName="transform" begin="0s" calcMode="spline" dur="3s" keySplines="0.33 0 0.67 1; 0.33 0 0.67 1; 0.33 0 0.67 1; 0.33 0 0.67 1" keyTimes="0; 0.244444; 0.5; 0.744444; 1" repeatCount="indefinite" type="translate" values="0 0; 0 25; 0 0; 0 25; 0 0"/><g transform="rotate(-1)"><animateTransform fill="freeze" attributeName="transform" begin="0s" calcMode="spline" dur="3s" keySplines="0.33 0 0.67 1; 0.33 0 0.67 1; 0.33 0 0.67 1; 0.33 0 0.67 1; 0.33 0 0.67 1; 0.33 0 0.67 1; 0 0 1 1" keyTimes="0; 0.144445; 0.327777; 0.472222; 0.655556; 0.8; 0.983333; 1" repeatCount="indefinite" type="rotate" values="-1; 1; -1; 1; -1; 1; -1; -1"/><g transform="scale(1.333)"><g id="i0"><g><path fill="#452133" d="M458.2 822C333 731.4 157.6 609.7 95.8 468c-30.8-70.7-29-158.7 1.8-229.5s99.8-126.4 176-114.3c70.6 11.2 124.8 72.5 183.2 149.3 25.6-40.5 51.7-81.6 87.7-113s84.1-52.8 131.5-45.9c47 7 86.8 40.6 112.5 80.6 69.8 108.9 44.9 257.9-26.3 365.9S564.7 748.6 458.2 822"/></g><g><path fill="#5c2b40" d="M462 815.5q-45.4-32.5-90.3-65.8c-32-23.9-63.7-48.5-94.2-74.4a994 994 0 0 1-87-82.5 533 533 0 0 1-68.1-89.5 284 284 0 0 1-39-109.4A298 298 0 0 1 95 266.8c11.6-36.2 31-69.6 59.2-95.4 25.7-23.6 58.8-40 94-41.3 35.6-1.1 68.8 13.2 97 33.8 32.7 24 59.6 55.5 84.6 87q10.5 13 20.5 26.4c3.4 4.4 9.7 5.1 13 0 22.6-35.8 45.5-72 76-101.8 28.3-27.6 64.7-49.8 104.6-54 78.6-8 138.5 59.5 162.7 127.5 25.4 71.5 18.3 150.8-7.2 221.3a415 415 0 0 1-53.6 101.4 559 559 0 0 1-77.5 85c-58.7 53.7-125 98.1-190.6 142.9l-23.3 16c-3.3 2.2-4.8 6.5-2.7 10.2 2 3.3 7 5 10.3 2.7 33-22.8 66.5-45.2 99.3-68.4 34-24 67.3-49 98.8-76.1a638 638 0 0 0 84.3-85.8 438 438 0 0 0 61.3-102.9 405 405 0 0 0 29.9-115c4-38.8 1.7-78.5-8.6-116.1a252 252 0 0 0-54.6-102.3c-26.4-29.3-61.6-51.2-101.3-55.4-42-4.4-84.4 12.3-117.7 37.2-35.3 26.5-61.8 62.4-85.8 99q-8.8 13.5-17.3 27h13c-26.8-35.1-54.3-70.4-87.4-100-27.7-24.7-60.2-45.5-97.2-52.2-37.9-6.8-76.3 2.1-108.5 22.8s-58.5 51.7-75.3 86.4A300 300 0 0 0 66 354a290 290 0 0 0 27.3 126.8 456 456 0 0 0 62.4 95.1 824 824 0 0 0 85 87.2c31 28 63.6 54.2 96.8 79.6 31.3 24 63.2 47 95.1 70.1l21.7 15.7c3.3 2.4 8.4.6 10.3-2.7 2.2-3.8.6-7.9-2.7-10.3z"/></g><g><path fill="#5c2b40" d="M467 819.7v-72.4c0-9.7-15-9.7-15 0v72.4c0 9.6 15 9.6 15 0"/></g><g><path fill="#fff" d="M776.7 179a120 120 0 0 1 25.8 40.8c-44 46.1-110.2 78-171.8 98.4l-232.1 77.1c-91 30.2-194.3 81-290.4 77.3h-7c-9-12-10.5-19.6-15-33-1.4-4.4-3.1-11.6-5.2-18.8h1.8c46-1.9 113.7-8.4 157.2-24.4l404.7-132.2c62.5-20.3 90.8-35.8 129.8-84.7z"/></g><g><path fill="#5c2b40" d="M771.4 184.2a102 102 0 0 1 23.9 37.6l1.9-7.4c-31.5 33-71.5 56.5-112.8 75a678 678 0 0 1-65 24.6l-77.7 26C490 357 438 373.7 386.6 391.5c-46.4 16-91.7 34.7-138.4 49.6-45.5 14.5-92 25-140 24h-7l6.5 3.6c-10.9-14.7-14.5-32.6-19.5-50l-7.2 9.6c9.1.4 18.6-.8 27.7-1.4a866 866 0 0 0 32.5-3c22.7-2.4 45.4-5.6 67.7-10.7 14.8-3.4 29-8.3 43.4-13l43.1-14 66.4-21.7 78.3-25.6 78.9-25.8 68.2-22.2 46.2-15.1q18-5.8 35.9-12c17.3-6.3 34.5-13.5 50.3-23.1s28.6-20.6 40.7-33.3a346 346 0 0 0 19.6-22.6l-3.3 2 2-.7c9.3-2.6 5.4-17.1-4-14.4-1.9.5-3.8 1-5.4 2.5q-2.6 3-5 6.3-5 6-10.3 11.8-9.1 10.1-19.3 19a183 183 0 0 1-41.7 26.7 472 472 0 0 1-56.4 21l-38.2 12.5-63.4 20.7-77 25.2-80 26-70.7 23.1-50.4 16.5q-10.4 3.3-20.7 6.8c-20.2 7.2-41.4 11.5-62.6 14.9s-43.9 5.7-66 7.3c-8.7.6-17.7 1.7-26.5 1.3-4.9-.3-8.5 5-7.2 9.5C77 434.3 80 446 84.3 457.2q3 7.8 7.5 15c2.2 3.2 4.3 7 8.5 7.7l4.8.2c11.2 0 22.2.2 33.3-.5q20-1.5 39.5-5c53.7-9.6 105-29 155.9-48 53.9-20.1 108.5-38 163-56l86.3-28.7c26.6-8.8 53.4-17.1 79.5-27.2C710.3 296.2 757 272 795 237.5q6.6-6 12.8-12.4c1.8-1.9 2.8-4.8 2-7.3a119 119 0 0 0-27.8-44.2c-6.8-6.9-17.4 3.7-10.6 10.6"/></g><g><path fill="#382130" d="M457.5 744C346.1 663.3 190 555.1 135 429c-27.4-63-25.8-141.3 1.6-204.3S225.4 112.3 293.3 123c62.7 10 111 64.5 163 132.8 22.7-36 46-72.5 78-100.6 32.1-28 74.9-46.9 117-40.7s77.3 36 100.1 71.7c62.2 96.9 40 229.5-23.4 325.6S552.3 678.7 457.5 744"/></g><g><path fill="#5c2b40" d="M461.3 737.5c-55.6-40.2-111.5-80-163.8-124.4-52-44.3-102.7-93.4-137.9-152.6a253 253 0 0 1-34.8-96.8 265 265 0 0 1 10-113c10.3-32.3 27.5-62 52.6-85 22.7-20.9 52-35.5 83.1-36.6 69.7-2.4 121.7 57.7 161.3 107.4l18 23.1c3.3 4.5 9.6 5.2 12.9 0 20-31.7 40.4-63.8 67.4-90.2 25-24.4 57.1-44.2 92.4-48 69.7-7.3 122.8 52.6 144.3 113 22.6 63.7 16 134.3-6.7 197a368 368 0 0 1-47.2 89.1c-20 28-44 53.1-69.5 76.3-52.2 47.6-111.1 87-169.3 126.7l-20.4 14c-3.3 2.3-4.8 6.6-2.7 10.3 2 3.3 7 5 10.3 2.7C521.5 709 582.9 669 638.4 621.2c27-23.3 52.7-48.5 75-76.6a392 392 0 0 0 54.5-92c27-64.3 37.2-138.3 18.3-206.3s-68-133-140.4-140c-37.5-3.6-75.1 11.5-104.6 33.8-31.2 23.6-54.7 55.3-76 87.7l-15.5 24.3h13c-24-31.5-48.6-63.1-78.2-89.5-24.8-22.1-54-40.7-87.2-46.5-70.7-12.3-134.4 36.7-164 97.8a268 268 0 0 0-1 227.3c30 63.2 79.8 115.9 131.2 162.1 53.7 48.3 112.2 90.9 170.7 133l19.5 14.2c3.3 2.4 8.4.5 10.3-2.7 2.2-3.8.6-7.9-2.7-10.3"/></g><g><path fill="#e65c94" d="M765 292.9a14.6 14.6 0 1 1-29.2 0 14.6 14.6 0 0 1 29.2 0"/></g><g><path fill="#e65c94" d="M756.8 235.9a12.4 12.4 0 1 1-24.8 0 12.4 12.4 0 0 1 24.8 0"/></g><g><path fill="#e65c94" d="M729 187.5a10.5 10.5 0 1 1-21 0 10.5 10.5 0 0 1 21 0"/></g><g><path fill="#e65c94" d="M753.8 422.6a14.6 14.6 0 1 1-29.3 0 14.6 14.6 0 0 1 29.3 0"/></g><g><path fill="#e65c94" d="M729 479.6a14.6 14.6 0 1 1-29.2 0 14.6 14.6 0 0 1 29.2 0"/></g><g><path fill="#e65c94" d="M694.5 532.1a14.6 14.6 0 1 1-29.2 0 14.6 14.6 0 0 1 29.2 0"/></g><g><path fill="#e65c94" d="M656.3 577.1a14.6 14.6 0 1 1-29.3 0 14.6 14.6 0 0 1 29.3 0"/></g><g><path fill="#e65c94" d="M611.3 623.6a14.6 14.6 0 1 1-29.3 0 14.6 14.6 0 0 1 29.3 0"/></g><g><path fill="#e65c94" d="M765 355.1a14.6 14.6 0 1 1-29.2 0 14.6 14.6 0 0 1 29.2 0"/></g><g><path fill="#e65c94" d="M178.5 292.9a14.6 14.6 0 1 1-29.2 0 14.6 14.6 0 0 1 29.2 0"/></g><g><path fill="#e65c94" d="M182.3 235.9a12.4 12.4 0 1 1-24.8 0 12.4 12.4 0 0 1 24.8 0"/></g><g><path fill="#e65c94" d="M212.3 187.5a10.5 10.5 0 1 1-21 0 10.5 10.5 0 0 1 21 0"/></g><g><path fill="#e65c94" d="M195.8 422.6a14.6 14.6 0 1 1-29.3 0 14.6 14.6 0 0 1 29.3 0"/></g><g><path fill="#e65c94" d="M220.5 479.6a14.6 14.6 0 1 1-29.2 0 14.6 14.6 0 0 1 29.2 0"/></g><g><path fill="#e65c94" d="M255 532.1a14.6 14.6 0 1 1-29.2 0 14.6 14.6 0 0 1 29.2 0"/></g><g><path fill="#e65c94" d="M293.3 577.1a14.6 14.6 0 1 1-29.3 0 14.6 14.6 0 0 1 29.3 0"/></g><g><path fill="#e65c94" d="M338.3 623.6a14.6 14.6 0 1 1-29.3 0 14.6 14.6 0 0 1 29.3 0"/></g><g><path fill="#e65c94" d="M178.5 355.1a14.6 14.6 0 1 1-29.2 0 14.6 14.6 0 0 1 29.2 0"/></g><g><path fill="#e65c94" d="M611.3 623.6a14.6 14.6 0 1 1-29.3 0 14.6 14.6 0 0 1 29.3 0"/></g><g><path fill="#fff" d="M756.8 196.5a215 215 0 0 1 21 49.5c-36.3 43-111.7 79.9-164 97.6L417.1 410l-10.8 3.8c-20 7-39.8 14.6-59.8 21.8a913 913 0 0 1-61.4 20.5 399 399 0 0 1-62.4 13q-15.6 2-31.3 2c-10.6 0-21-.7-31.7-.2-9.7-9.7-10.4-14.2-16.4-25.5-2.5-4.5-5.3-11.2-3.4-12.3l3-1.7a476 476 0 0 0 138-25.6L624.2 292c53-17.5 96.4-47.6 128.3-93.4z"/></g><g><path fill="#5c2b40" d="M750.3 200.3c9.3 14.6 15 31.3 20.2 47.7l2-7.3c-23.1 27.2-54.7 46.9-86 63.3q-23.8 12.6-49 22.8c-18.1 7.3-36.8 13.3-55.4 19.6l-135.8 46q-34 11.3-67.7 23.6c-22.5 8.2-44.3 16.5-66.7 24a506 506 0 0 1-75.4 19.7 277 277 0 0 1-38 3.8c-12.9.4-25.8-.5-38.8 0l5.3 2.2a65 65 0 0 1-12-17.5c-1.7-3.5-3.8-7-5.2-10.5q-.3-1.1-.8-2.1-.2-1.5-.2-.7 0 2.8-3 4.6c1-.2 2-1 3-1.5l-3.9 1c37-.4 74.7-7 110.4-16.5 12.9-3.4 25.3-7.9 38-12l93.3-31 135-44.9 96.5-32q18.2-5.9 35.9-13.2a249 249 0 0 0 106.9-87l-2.7 2.7 4.3-2.1c3.7-1.8 4.6-7 2.7-10.3-2.2-3.7-6.6-4.4-10.3-2.7l-4.3 2.1c-3.4 2.1-5.8 7.2-8.2 10.4q-6.5 8.7-14 16.7a225 225 0 0 1-32.6 29.3 260 260 0 0 1-71.8 36.3l-45.2 15-98 32.5-108.6 36.1-77.4 25.7-13.7 4.6a466 466 0 0 1-129 25.1c-3.6.2-7.8-.3-11.1 1.3a13 13 0 0 0-5.9 4.6c-2 3.4-1.3 7.8 0 11.3 2.4 6.7 6 13 9.3 19.3q1.9 3.8 4.4 7.2c2.5 3.3 5.6 8 9.2 10s9.7.8 13.8.9l14.4.2q14.2.4 28.6-.8c38.1-3.2 75.2-13.7 111.3-26.1s71.6-26.4 107.7-38.6l111.8-37.9c32.9-11 66.3-21.2 98.5-34.2a519 519 0 0 0 81.7-41q19.4-12.2 36.9-26.7a201 201 0 0 0 21.4-20.9c1.6-1.9 3.1-3.8 3.1-6.4 0-2.8-1.5-6-2.4-8.6-5.1-15.4-10.9-31-19.6-44.7-5.2-8.1-18.1-.6-13 7.6z"/></g><g><path fill="#e65c94" d="M679.2 260.2a490 490 0 0 1 57.7-87.9c9.7-11.8 23.3-24.3 38.2-20.7 9.6 2.3 16.3 10.7 21.6 19 24.2 37.3 36 82.6 33 127-.6 9.4-2.8 20.2-11.2 24.6-4.9 2.6-10.8 2.2-16.4 1.8-45.6-3.6-96.5-9.9-125.2-45.5"/></g><g><path fill="#e65c94" d="M689 265.9a466 466 0 0 1 56.6-86.5c4.8-5.8 10-11.2 15.6-14.4l2-1.1.5-.3q2.6-1 5.4-1.5c-2.3.3 3.2.3 2.2.1-1.5-.2 2.1.6 1.9.5 2 .4-.5-.5 1.4.6a32 32 0 0 1 9.2 8.3q1.7 2.2 3.2 4.7 6.7 10.3 12.1 21.4c14 28.5 20.7 60.8 19.7 92.8q0 5.6-.7 11.2c.3-2.3-.3 1.4-.5 2.1l-.6 2.5-.7 2-.7 1.4-1 1.6c1.2-1.8 0 0-.5.3-1.3 1 2.3-.8-.4.3-1 .5-1.3.8-3 1h-6a479 479 0 0 1-31.5-3l-2.2-.3c2 .2-.5 0-1-.2a312 312 0 0 1-29-5.7 179 179 0 0 1-16.7-5.3l-3-1.2-1.3-.6a122 122 0 0 1-20.9-12l-1.7-1.4a95 95 0 0 1-12.5-12.7c-3.8-4.7-12-4-15.9 0-4.7 4.7-3.9 11.2 0 16 20.3 24.8 51.6 36.8 82.3 42.6 16 3 32.4 4.6 48.6 6 10.4.8 20.7.5 29-6.6a36 36 0 0 0 11-21.8 220 220 0 0 0-28.7-134 100 100 0 0 0-15.7-21.8c-7-6.8-16.2-11.4-26-11.2s-19 4.8-26.8 11a120 120 0 0 0-19.8 21.1q-10.5 13.2-20 27a491 491 0 0 0-33.4 55.7 11.5 11.5 0 0 0 4 15.4c5 3 12.6 1.4 15.4-4"/></g><g><path fill="#e65c94" d="M640.2 271.5a490 490 0 0 0-95.8-43.4c-14.5-4.8-32.7-8-43.4 3-6.8 7-8 17.7-8.1 27.6a210 210 0 0 0 40 124.9c5.6 7.6 13.3 15.5 22.6 14.8 5.6-.4 10.4-4 14.9-7.3 36.6-27.4 76.3-59.9 81.4-105.3"/></g><g><path fill="#e65c94" d="M645.8 261.8a496 496 0 0 0-51.7-26.5 357 357 0 0 0-54-20.2c-16.5-4.2-36.6-4.6-48.5 9.7-12 14.4-10.7 35.5-9.2 53.1 3 36.5 14.9 72.3 35 103 10 15.1 24.8 34.5 45.7 27.3 8.4-2.9 15.2-9 22-14.3a523 523 0 0 0 20.5-16.3c14-12 27.2-25.2 37.8-40.4a113 113 0 0 0 19.7-51.4c.7-5.9-5.7-11.5-11.3-11.3-6.7.3-10.5 5-11.2 11.3-.5 3.6.2-1.2-.2.9l-.4 2.8a93 93 0 0 1-5.2 17.3l-.4.9-2 4a117 117 0 0 1-11 17.8c-2.2 2.9.6-.9-.7.8l-1.8 2.2a186 186 0 0 1-18.8 20 333 333 0 0 1-24.9 21c-3 2.3.8-.7-1 .7l-2.2 1.7-4.6 3.5q-4.1 3.3-8.7 6.2l-2 1.1c1.6-.8-1.8.5-1.8.5h-.5c-3 .1 1.5.5-1.3-.2-1.4-.3-3.6-1.8-5.4-3.4l-3.6-3.9-3-3.9a201 201 0 0 1-37-110.7 145 145 0 0 1 .6-15.6 38 38 0 0 1 2-7l.2-.4 1.4-2.4c1-1.4-1.7 1.4.7-.7l1.5-1.5c-1.3 1.2-.1.2.2 0l2.2-1.3q1.1-.5-.3.2l1.4-.5c.7-.2 4.8-1 2.5-.7l5.3-.3q2.3 0 4.4.3c3.4.3-1.2-.3.8.1l3.3.6c8.7 1.9 17.2 5 25.5 8a446 446 0 0 1 78.7 37.3c5.2 3.1 12.3 1.2 15.4-4s1.2-12.3-4-15.4z"/></g><g><path fill="#e65c94" d="M678.6 281.9c22.8 19 78.5 91.6 94 115.8 4 6 7.7 12.8 6 20-2.8 12.8-22.2 18.8-35.3 14s-20.8-16.4-27.2-27.6a389 389 0 0 1-46-132.3"/></g><g><path fill="#e65c94" d="M670.7 289.8c14.3 12 26.2 27.2 38 41.6a1112 1112 0 0 1 19 23.6l1.7 2.3a1109 1109 0 0 1 33.3 45.7c1.6 2.6 3.8 6 4.4 7.8l.7 2.4v1.4c-.2 1.3-.7 2.1.1.5l-.8 1.4c-1 2.2 1.1-.7 0 .1-.5.4-3.4 3-1.1 1.4l-3 2-1.2.5c1.5-.6-1 .3-1.3.4q-2.2.7-4.6 1.1c2.5-.5-.9 0-1.7 0H750c-1.5 0 1.6.6.2 0q-1.2-.5-2.6-.7c-.3 0-2.2-.7-.8-.2l-2-1-4-2.4c-2.9-2 .7.7-.8-.6l-1.7-1.5-4.2-4.5c-.2-.2-1.4-1.7-.4-.4l-1.3-1.8q-1.5-2-2.8-4.3-3-4.8-5.7-9.8-6-10.6-11.2-21.7A384 384 0 0 1 681 268.8c-1-6-8.4-9.3-13.8-7.9-6.4 1.8-8.8 7.8-7.9 13.9q8.6 53.4 30.9 102.9c6.7 15 14 30.7 23.8 43.9s23.8 24 41.2 23c14.4-1 30.7-8.7 34.3-24 3.4-14.2-5.5-26.5-13.2-37.5a1080 1080 0 0 0-68.7-87.8 204 204 0 0 0-21-21.4c-4.7-4-11.4-4.6-16 0-4 4-4.6 12 0 15.9z"/></g><g><path fill="#e65c94" d="M664.9 285.9c-9.1 28.1-17.3 119.4-17.5 148.1 0 7.2.4 15 5.6 20.1 9.2 9.3 28.9 4 37.4-7s8.8-25 8.1-37.9a389 389 0 0 0-31.9-136.4"/></g><g><path fill="#e65c94" d="M654 282.9c-6.3 19.9-8.3 41.6-10.8 62.3q-4.2 35.4-6.4 71c-.6 10.3-1.5 21 .5 31a28 28 0 0 0 14 19.5 35 35 0 0 0 23.7 2.4 44 44 0 0 0 32.4-31.5c4.8-16.3 2.4-34.6.6-51.2a408 408 0 0 0-31.6-119.2c-2.5-5.6-10.6-6.9-15.4-4-5.8 3.3-6.5 9.7-4 15.3a384 384 0 0 1 26.7 93.8c2.2 14.4 4.1 31 3.8 46.4-.1 6.4-.9 12.4-3.5 17.5l-1.2 2.1-1.2 1.8-.7.8-1.6 1.6-1.4 1.2c.4-.3 1.6-1-.1 0l-4.2 2.3c1.8-.9.5-.1 0 0l-2.3.8-4.2 1c2.5-.4-.8-.1-1.6-.1l-1.8-.1c2.6 0 .4 0-.5-.2l-1.6-.6c2.4.8.7.3 0-.1-.3-.2-1.7-1.3-.6-.3 1.5 1.2-1-1.2-.9-1.1 1.3 1.6-1-2.9-.3-.8l-.6-2.1c0-.2-.5-3.5-.3-1.5-.8-8.4 0-17 .5-25.4a1140 1140 0 0 1 7-75.1l.5-4.7.3-1.9c.3-2.7-.3 1.8 0-.7l2.7-17.4c1.5-9 3-18.1 5.8-26.8 1.8-5.6-2-12.6-7.8-13.9-6.2-1.4-12 1.9-13.9 7.9"/></g><g><path fill="#fff" d="M677 250a489 489 0 0 1 57.7-88c9.7-11.8 23.3-24.3 38.2-20.7 9.6 2.3 16.3 10.7 21.6 19a210 210 0 0 1 33 127c-.6 9.4-2.8 20.2-11.2 24.6-5 2.6-10.8 2.2-16.4 1.8-45.6-3.6-96.5-9.9-125.2-45.5"/></g><g><path fill="#f26e94" d="M683.5 253.7a468 468 0 0 1 57.2-87.3c7.5-8.9 20.5-23.1 33.6-16.7 6 3 10.2 9 13.8 14.4a201 201 0 0 1 32.2 116c-.2 6.4-.2 13.4-2.7 19.4-2.9 6.6-8.4 7.2-15.1 6.8q-21-1.1-41.8-4.5c-30-4.8-60.7-14.5-80.7-39-2.5-3-7.9-2.6-10.6 0-3 3.2-2.5 7.5 0 10.7 20 24.4 50.5 36 80.7 41.7 15.7 2.9 31.7 4.5 47.6 5.8 9.4.7 18.8 1 26.4-5.5 6-5 8.8-12.7 10-20a179 179 0 0 0-1.2-54.1 216 216 0 0 0-27.1-77.2c-4.3-7.3-9-15-15.2-21-6.3-6-14.5-10.2-23.4-10s-17.1 4.3-24.1 9.8c-7.7 6-13.7 13.6-19.7 21.2a492 492 0 0 0-52.8 82c-4.5 8.5 8.4 16.1 12.9 7.5"/></g><g><path fill="#fff" d="M638 261.2a490 490 0 0 0-95.8-43.4c-14.5-4.8-32.7-8-43.4 3-6.8 7-8 17.7-8.1 27.6a210 210 0 0 0 40 125c5.6 7.5 13.2 15.5 22.6 14.7 5.6-.4 10.4-4 14.9-7.3 36.6-27.4 76.2-59.9 81.4-105.3"/></g><g><path fill="#f26e94" d="M641.7 254.8q-25.1-14.9-51.7-26.6a288 288 0 0 0-53.1-19.8c-15.2-3.9-34-4.6-44.8 8.7-11.2 13.6-9.6 34-8.2 50.5 3 35.8 14.8 71 34.5 101 9 13.7 22.5 32.4 41.5 25.7 8-2.8 14.6-8.9 21.2-13.9s13.2-10.3 19.6-15.7c27.5-23.4 52-52.2 56.4-89.2.5-4-3.8-7.5-7.5-7.5-4.4 0-7 3.4-7.5 7.5-3.4 27.8-21.7 50.8-41.6 69.3a415 415 0 0 1-33.4 27.5c-4.7 3.5-10.8 9.7-17.2 8s-10.7-8-14.2-12.9a205 205 0 0 1-37.5-112.6c-.1-7.2-.3-14.6 1.9-21.5 4-13 17.5-13.7 29-11.3 8.7 1.8 17.2 5 25.5 8a458 458 0 0 1 79.6 37.7c8.3 5 15.8-8 7.5-13"/></g><g><path fill="#fff" d="M674.8 272.8c20.7 19.6 72.4 93.4 87 118 3.6 6 7.1 12.8 6 19.8-2 12.7-19 18-30.8 12.8-11.7-5.2-19-17-25-28.3a443 443 0 0 1-45-132.5"/></g><g><path fill="#f26e94" d="M669.5 278.1c12.9 12.3 23.5 27 34 41a1293 1293 0 0 1 51 74.1c3 5 7.3 11.2 5.7 17.2-.8 3.2-4.1 5.5-7.9 6.7a18 18 0 0 1-12.5-.7 35 35 0 0 1-13.6-12.3c-8.5-12.1-14.8-26.3-20.8-39.8a440 440 0 0 1-31.2-103.7c-.7-4-5.6-6.3-9.2-5.3-4.2 1.2-6 5.3-5.2 9.3q9 52 29.7 100.4c6.4 15 13.2 30.5 22.1 44.3 8 12.2 19.6 23.5 35.1 23.6 13.3 0 27-8.2 28.6-22.2 1.4-12.5-6.7-23.6-13.1-33.6a1153 1153 0 0 0-63-87.8c-6-7.5-12.1-15.1-19.1-21.8s-17.6 4-10.6 10.6"/></g><g><path fill="#fff" d="M662.8 276.3c-7.1 27.6-11.2 117.7-10.5 146.1.2 7.1.9 14.8 5.6 20.1 8.5 9.6 25.7 5 32.8-5.7s7-24.5 6-37.2a443 443 0 0 0-32.8-136.1"/></g><g><path fill="#f26e94" d="M655.6 274.3c-5 19.3-6 39.9-7.5 59.7a1247 1247 0 0 0-3.2 69.4c-.2 9-.6 18 .5 27 1 8 4 15.6 10.7 20.5a26 26 0 0 0 19.4 3.8c14.8-2.4 24.8-14.8 27.7-29 3.4-16.1.6-33.5-1.5-49.7a452 452 0 0 0-30.6-114.5c-1.5-3.7-5-6.4-9.2-5.2-3.5 1-6.8 5.4-5.2 9.2a447 447 0 0 1 27.4 94 348 348 0 0 1 5.5 46.7c.4 11.4-.3 26-11.4 32-4 2-8.5 3-12.4 1.1-1-.5-2.7-2-3.6-3.7a21 21 0 0 1-2-8c-.8-8.2-.5-16.5-.3-24.6a1262 1262 0 0 1 6-99.7c1-8.3 1.9-16 4.1-25s-12-13.3-14.4-4"/></g><g><path fill="#e65c94" d="M706.1 257.5a88 88 0 0 1 42.4-25c4.6-1.3 2.7-8.5-2-7.3a96 96 0 0 0-45.7 27c-3.3 3.5 2 8.8 5.3 5.3"/></g><g><path fill="#e65c94" d="M716.5 277.2c10-8.3 22.5-13 35.5-13.5 4.8-.2 4.8-7.7 0-7.5-15 .6-29.2 6-40.8 15.7-3.7 3.1 1.6 8.4 5.3 5.3"/></g><g><path fill="#e65c94" d="M634.6 271.5a96 96 0 0 0-53.1 1.5c-4.6 1.5-2.6 8.7 2 7.2a90 90 0 0 1 49.1-1.5c4.7 1.2 6.7-6 2-7.2"/></g><g><path fill="#e65c94" d="M635.4 293.6a66 66 0 0 0-42 8.5c-4.1 2.5-.3 9 3.9 6.5a60 60 0 0 1 38-7.5c4.8.6 4.8-6.9 0-7.5"/></g><g><path fill="#e65c94" stroke="#e65c94" stroke-linecap="round" stroke-linejoin="round" stroke-width="16.5" d="m645.7 243.5 24-7c14.6-4.3 30.7 7 34.2 18.8l7 24c4.2 14.7-4.2 30-18.9 34.2l-24 7c-14.6 4.3-30.7-7-34.2-18.8l-7-24a27.6 27.6 0 0 1 18.9-34.2"/></g><g><path fill="#e65c94" d="M520.6 238.7a6.4 6.4 0 1 1-12.8 0 6.4 6.4 0 0 1 12.8 0"/></g><g><path fill="#e65c94" d="M510.9 254.4a68 68 0 0 0 6.5 41.6c2.1 4.3 8.6.5 6.4-3.8a60 60 0 0 1-5.7-35.8c.7-4.7-6.5-6.8-7.2-2"/></g><g><path fill="#e65c94" d="M774.6 165.5a6.4 6.4 0 1 1-12.8 0 6.4 6.4 0 0 1 12.8 0"/></g><g><path fill="#e65c94" d="M774.2 182.4c8.2 9.3 13.3 21 14.5 33.3.4 4.8 8 4.8 7.5 0a68 68 0 0 0-16.6-38.6c-3.2-3.7-8.5 1.6-5.3 5.3z"/></g><g><path fill="#fff" stroke="#f26e94" stroke-linecap="round" stroke-linejoin="round" stroke-width="10.5" d="m644 237.7 24-7c14.6-4.2 30.8 7 34.2 18.9l7 24c4.2 14.6-4.2 30-18.9 34.2l-24 7c-14.6 4.2-30.7-7-34.2-18.9l-7-24a27.6 27.6 0 0 1 19-34.2"/></g></g></g></g></g></g></svg>